<?xml version="1.0" encoding="UTF-8"?>
<svg id="Layer_3" data-name="Layer 3" xmlns="http://www.w3.org/2000/svg" xmlns:xlink="http://www.w3.org/1999/xlink" version="1.1" viewBox="0 0 164 61.2">
  <defs>
    <style>
      .cls-1 {
        fill: url(#Degradado_sin_nombre_123);
      }

      .cls-1, .cls-2, .cls-3, .cls-4, .cls-5 {
        stroke-width: 0px;
      }

      .cls-1, .cls-3, .cls-4 {
        opacity: .7;
      }

      .cls-2 {
        fill: #a9a9a9;
      }

      .cls-3 {
        fill: url(#Degradado_sin_nombre_51);
      }

      .cls-4 {
        fill: url(#Degradado_sin_nombre_48);
      }

      .cls-5 {
        fill: #fff;
      }
    </style>
    <linearGradient id="Degradado_sin_nombre_48" data-name="Degradado sin nombre 48" x1="25" y1="14.6" x2="25" y2="55.7" gradientUnits="userSpaceOnUse">
      <stop offset="0" stop-color="#ecb330"/>
      <stop offset="0" stop-color="#f49b21"/>
      <stop offset="1" stop-color="#eb6432"/>
    </linearGradient>
    <linearGradient id="Degradado_sin_nombre_123" data-name="Degradado sin nombre 123" x1="24.8" y1=".7" x2="24.8" y2="53.8" gradientUnits="userSpaceOnUse">
      <stop offset="0" stop-color="#ecb330"/>
      <stop offset="0" stop-color="#f49b21"/>
      <stop offset="1" stop-color="#ed7b32"/>
    </linearGradient>
    <linearGradient id="Degradado_sin_nombre_51" data-name="Degradado sin nombre 51" x1="32.8" y1="10.9" x2="15.4" y2="58.7" gradientUnits="userSpaceOnUse">
      <stop offset="0" stop-color="#ecb330"/>
      <stop offset="0" stop-color="#f49b21"/>
      <stop offset=".5" stop-color="#f49921"/>
      <stop offset="1" stop-color="#eb6433"/>
    </linearGradient>
  </defs>
  <path class="cls-2" d="M159.6,17.5h0c-1.6,0-2.8,1.3-2.8,2.8v17.6c0,.3-.1.4-.3.4h-.3c-.2,0-.4,0-.5-.3l-13.8-18.3c-1.2-1.7-1.7-2.2-4.4-2.2h-3.4c-2.4,0-3.3.9-3.3,3.9v7.2c0,2.9-3.9,3.9-5.3,1.4l-5.3-9.6c-1.2-2.3-2.4-2.9-4.3-2.9h-2.2c-1.6,0-2.7.6-3.9,2.9l-1.9,3.4-7.7,14.1s-.2.5-.5.5h-.2c-.2,0-.3,0-.5-.3l-5.8-10.8-.4-.8h0c-1.3-2.6-4.9-2.6-6.2-.1h0l-.5.9-5.8,10.8c-.1.2-.2.3-.4.3h-.2c-.2,0-.3,0-.5-.3l-10.4-19.2c-.5-.9-1.4-1.4-2.4-1.4h0c-2.1,0-3.4,2.2-2.4,4.1l10.6,19.4c1.2,2.3,2.4,2.9,4.3,2.9h2.2c1.6,0,2.7-.6,3.9-2.9l3.2-5.8c.7-1.2,2.4-1.2,3.1,0l3.2,5.8c1,1.8,1.8,2.5,3.1,2.7,0,0,.2.1.4.1h3.9c1,0,2-.6,2.5-1.5l4.5-8.4,5.8-10.8c.1-.2.2-.3.4-.3h.2c.2,0,.3,0,.5.3l3.1,5.8c1,1.9-.3,4.2-2.5,4.2h-2c-.8,0-.8.1-1.6,1.5l-1.1,2c-.4.8.2,1.5,1,1.5h9.4c1,0,2,.6,2.5,1.5l2.1,3.8c.2.3.4.5.9.5h8.2c.5,0,.8-.3.8-.8v-19.6c0-.3,0-.4.3-.4h.3c.2,0,.3,0,.5.3l13.9,18.3c1.2,1.7,1.6,2.2,4.3,2.2h3.3c2.4,0,3.4-.9,3.4-3.9v-19.5c0-1.6-1.3-2.8-2.8-2.8Z"/>
  <g>
    <g>
      <path class="cls-4" d="M10.5,22.5c-4.8.7-3.7,6.4-7.3,5.3s-3.5-5.7-1.2-9.1c4-6,17-4.4,24.9-1.4,2,.8,12.6,6.2,19.7,18.7s4.5,6.9,1.4,12c-1.9,3.1-7.5,7.8-12.1,7.7-6.6-.2-8.7-7.1-9-7.7-3.1-7.3-2.4-7.6-5.2-13.8-2.6-5.8-7.3-12.2-11.1-11.7Z"/>
      <path class="cls-1" d="M3.4,12.1C6.3,5.6,14.8.5,24,.7s16.4,10.3,17.6,12.4c5.7,9.5,7.8,20.8.8,29.6-5,6.2-16.9,13.6-22.9,10.4-3.2-1.7-4.4-5.3-4.9-6.9-2.2-6.6-.2-16.5.6-20.7.1-.7.2-2.6-.2-3.7-1-3-3.8-4.4-6.5-4.3s-3.8-.3-4.4-.6c-.9-.4-2-1.7-.6-4.9Z"/>
      <path class="cls-3" d="M24.3,59.8c-7,1.2-15.9-3.2-20.8-11-5.9-9.6-.4-19.3.7-21.5,4.8-10,13.1-18,24.3-16.9,7.9.8,21.1,6.5,21.7,13.3.3,3.6-1.8,6.9-2.9,8.1-3,3.5-9.3,7.2-13.3,8.7-.7.3-6.9,3.3-7.5,4.2-2,2.5-1.7,5.7-.1,7.9s1.5,3.1,1.7,3.9c.1,1-.4,2.6-3.7,3.2Z"/>
    </g>
    <path class="cls-5" d="M27.9,16.4c-.5-1.6-1.7-2.3-4.1-2.3h-6.2c-.6,0-1,.3-1,1v4.4c0,.7.4,1,1,1h2.6c.6,0,1,.3,1,1v24.1c0,.7.3,1,1,1h4.9c.7,0,1.1-.3,1.1-1v-27.5c0-.6,0-1.1-.2-1.6Z"/>
  </g>
</svg>