<?xml version="1.0" encoding="UTF-8"?>
<svg id="Capa_1" data-name="Capa 1" xmlns="http://www.w3.org/2000/svg" xmlns:xlink="http://www.w3.org/1999/xlink" version="1.1" viewBox="0 0 329.9 127.6">
  <defs>
    <style>
      .cls-1 {
        fill: url(#Degradado_sin_nombre_123);
      }

      .cls-1, .cls-2, .cls-3, .cls-4 {
        stroke-width: 0px;
      }

      .cls-1, .cls-3, .cls-4 {
        opacity: .7;
      }

      .cls-2 {
        fill: #a9a9a9;
      }

      .cls-3 {
        fill: url(#Degradado_sin_nombre_51);
      }

      .cls-4 {
        fill: url(#Degradado_sin_nombre_48);
      }
    </style>
    <linearGradient id="Degradado_sin_nombre_48" data-name="Degradado sin nombre 48" x1="53.1" y1="32.9" x2="53.1" y2="113.8" gradientUnits="userSpaceOnUse">
      <stop offset="0" stop-color="#ecb330"/>
      <stop offset="0" stop-color="#f49b21"/>
      <stop offset="1" stop-color="#eb6432"/>
    </linearGradient>
    <linearGradient id="Degradado_sin_nombre_123" data-name="Degradado sin nombre 123" x1="52.6" y1="5.4" x2="52.6" y2="110.2" gradientUnits="userSpaceOnUse">
      <stop offset="0" stop-color="#ecb330"/>
      <stop offset="0" stop-color="#f49b21"/>
      <stop offset="1" stop-color="#ed7b32"/>
    </linearGradient>
    <linearGradient id="Degradado_sin_nombre_51" data-name="Degradado sin nombre 51" x1="68.4" y1="25.6" x2="34.1" y2="119.8" gradientUnits="userSpaceOnUse">
      <stop offset="0" stop-color="#ecb330"/>
      <stop offset="0" stop-color="#f49b21"/>
      <stop offset=".5" stop-color="#f49921"/>
      <stop offset="1" stop-color="#eb6433"/>
    </linearGradient>
  </defs>
  <path class="cls-2" d="M318.6,38.6h0c-3.1,0-5.6,2.5-5.6,5.6v34.7c0,.5-.2.7-.6.7h-.7c-.4,0-.7-.1-1-.5l-27.3-36.1c-2.4-3.3-3.3-4.4-8.6-4.4h-6.7c-4.7,0-6.6,1.9-6.6,7.7v14.2c0,5.8-7.7,7.8-10.5,2.7l-10.4-19c-2.4-4.5-4.7-5.6-8.5-5.6h-4.4c-3.1,0-5.4,1.1-7.8,5.6l-3.7,6.8-15.2,27.9s-.4,1-1,1h-.4c-.4,0-.7-.1-.9-.5l-11.5-21.3-.9-1.6v-.3c-2.8-4.9-9.8-4.9-12.4,0h0l-1,1.8-11.4,21.3c-.2.4-.4.5-.8.5h-.4c-.4,0-.7-.1-.9-.5l-20.6-38c-1-1.8-2.8-2.8-4.8-2.8h0c-4.1,0-6.7,4.4-4.7,8l21,38.2c2.4,4.5,4.7,5.6,8.5,5.6h4.4c3.1,0,5.4-1.1,7.8-5.6l6.3-11.5c1.3-2.4,4.8-2.4,6.1,0l6.3,11.5c1.9,3.5,3.6,4.9,6.1,5.4.2.1.5.2.8.2h7.7c2.1,0,4-1.1,4.9-3l8.8-16.6,11.4-21.3c.2-.4.4-.5.8-.5h.4c.4,0,.7.1.9.5l6.2,11.5c2,3.7-.7,8.2-4.9,8.2h-3.9c-1.6,0-1.7.3-3.1,2.9l-2.1,4c-.8,1.6.3,2.9,1.9,2.9h18.6c2.1,0,3.9,1.1,4.9,2.9l4.1,7.6c.3.7.7.9,1.7.9h16.3c1,0,1.6-.5,1.6-1.6v-38.7c0-.5.1-.7.6-.7h.7c.4,0,.7.1,1,.5l27.3,36.1c2.3,3.3,3.2,4.4,8.5,4.4h6.6c4.7,0,6.7-1.9,6.7-7.7v-38.6c0-3.1-2.5-5.6-5.6-5.6Z"/>
  <g>
    <path class="cls-4" d="M24.4,48.4c-9.4,1.3-7.3,12.6-14.5,10.4-3.7-1.1-6.9-11.2-2.3-17.9,7.9-11.8,33.5-8.7,49-2.8,4,1.5,24.9,12.2,38.8,36.9,3,5.3,8.9,13.6,2.8,23.7-3.7,6.1-14.8,15.4-23.9,15.1-13-.4-17.2-14-17.7-15.1-6.1-14.4-4.8-15-10.2-27.3-5.1-11.4-14.5-24.1-22-23Z"/>
    <path class="cls-1" d="M10.4,27.8C16.1,15,32.9,5,51.1,5.5c22.2.5,32.3,20.3,34.8,24.4,11.3,18.7,15.5,41.1,1.5,58.3-9.8,12.2-33.4,26.9-45.3,20.5-6.2-3.4-8.6-10.5-9.6-13.6-4.3-13.1-.4-32.5,1.2-40.8.3-1.5.3-5.2-.3-7.2-2-5.9-7.6-8.6-12.9-8.4-4.8.2-7.4-.6-8.8-1.2-1.8-.8-3.9-3.4-1.2-9.6Z"/>
    <path class="cls-3" d="M51.6,121.9c-13.8,2.3-31.3-6.3-41-21.7-11.7-18.8-.7-38.1,1.4-42.5,9.5-19.7,25.9-35.4,47.9-33.3,15.6,1.5,41.7,12.8,42.8,26.3.6,7.1-3.5,13.6-5.7,16.1-5.9,6.9-18.5,14.1-26.2,17.3-1.4.6-13.5,6.6-14.9,8.3-3.9,4.9-3.3,11.2-.2,15.6,2.7,3.9,3,6.2,3.3,7.7.3,2-.7,5.2-7.4,6.3Z"/>
  </g>
</svg>